<svg width="160" height="28" viewBox="0 0 160 28" fill="none" xmlns="http://www.w3.org/2000/svg">
<g clip-path="url(#clip0_9_50)">
<path d="M5.745 19.09H3.945C1.89 19.09 0.675 17.8 0.675 15.55V11.2C0.675 8.02 2.64 7.66 5.37 7.66H6.42C8.775 7.66 9.495 8.68 9.495 10.9V11.26H8.22V10.945C8.22 9.37 7.89 8.785 6.24 8.785H5.52C2.88 8.785 1.95 9.1 1.95 11.155V14.245C1.95 16.81 2.055 17.965 4.185 17.965H5.7C7.74 17.965 8.37 17.68 8.37 16.075V15.175H9.645V16.225C9.645 18.805 7.995 19.09 5.745 19.09ZM14.2506 7.66H15.7656C18.5706 7.69 19.4256 8.62 19.4256 11.44V15.445C19.4256 18.1 18.4656 19.09 15.7656 19.09H14.2506C11.5506 19.09 10.5906 18.1 10.5906 15.445V11.44C10.5906 8.62 11.4456 7.69 14.2506 7.66ZM15.7656 8.785H14.2506C12.3606 8.785 11.8656 9.25 11.8656 11.44V15.445C11.8656 17.68 12.6006 17.95 14.2506 17.965H15.7656C17.4156 17.95 18.1506 17.68 18.1506 15.445V11.44C18.1506 9.25 17.6556 8.785 15.7656 8.785ZM22.3491 14.5V19H21.0741V7.75H26.2641C28.6941 7.75 29.7591 8.425 29.7591 10.99C29.7591 12.565 29.5791 13.735 27.7941 13.96V13.99C29.0541 14.08 29.6091 14.8 29.6091 16.015V19H28.3341V16.615C28.3341 15.19 27.9891 14.5 26.4441 14.5H22.3491ZM22.3491 13.375H26.2791C28.2441 13.315 28.4841 12.715 28.4841 10.855C28.4841 9.415 28.2891 8.875 26.2791 8.875H22.3491V13.375ZM32.8666 14.5V19H31.5916V7.75H36.7816C39.2116 7.75 40.2766 8.425 40.2766 10.99C40.2766 12.565 40.0966 13.735 38.3116 13.96V13.99C39.5716 14.08 40.1266 14.8 40.1266 16.015V19H38.8516V16.615C38.8516 15.19 38.5066 14.5 36.9616 14.5H32.8666ZM32.8666 13.375H36.7966C38.7616 13.315 39.0016 12.715 39.0016 10.855C39.0016 9.415 38.8066 8.875 36.7966 8.875H32.8666V13.375ZM42.9642 8.875V12.7H48.6642V13.75H42.9642V17.875H48.9192V19H41.6892V7.75H48.9192V8.875H42.9642ZM55.2128 19.09H53.4128C51.3578 19.09 50.1428 17.8 50.1428 15.55V11.2C50.1428 8.02 52.1078 7.66 54.8378 7.66H55.8878C58.2428 7.66 58.9628 8.68 58.9628 10.9V11.26H57.6878V10.945C57.6878 9.37 57.3578 8.785 55.7078 8.785H54.9878C52.3478 8.785 51.4178 9.1 51.4178 11.155V14.245C51.4178 16.81 51.5228 17.965 53.6528 17.965H55.1678C57.2078 17.965 57.8378 17.68 57.8378 16.075V15.175H59.1128V16.225C59.1128 18.805 57.4628 19.09 55.2128 19.09ZM64.4234 8.875V19H63.1484V8.875H59.5034V7.75H68.0684V8.875H64.4234ZM75.2749 16.615H69.5899L68.7199 19H67.3849L71.4799 7.75H73.2799L77.4799 19H76.1599L75.2749 16.615ZM74.9149 15.565L72.4099 8.8L69.9349 15.565H74.9149ZM81.6499 8.875V19H80.3749V8.875H76.7299V7.75H85.2949V8.875H81.6499ZM87.6664 14.5V19H86.3914V7.75H91.5814C94.0114 7.75 95.0764 8.425 95.0764 10.99C95.0764 12.565 94.8964 13.735 93.1114 13.96V13.99C94.3714 14.08 94.9264 14.8 94.9264 16.015V19H93.6514V16.615C93.6514 15.19 93.3064 14.5 91.7614 14.5H87.6664ZM87.6664 13.375H91.5964C93.5614 13.315 93.8014 12.715 93.8014 10.855C93.8014 9.415 93.6064 8.875 91.5964 8.875H87.6664V13.375ZM100.149 7.66H101.664C104.469 7.69 105.324 8.62 105.324 11.44V15.445C105.324 18.1 104.364 19.09 101.664 19.09H100.149C97.449 19.09 96.489 18.1 96.489 15.445V11.44C96.489 8.62 97.344 7.69 100.149 7.66ZM101.664 8.785H100.149C98.259 8.785 97.764 9.25 97.764 11.44V15.445C97.764 17.68 98.499 17.95 100.149 17.965H101.664C103.314 17.95 104.049 17.68 104.049 15.445V11.44C104.049 9.25 103.554 8.785 101.664 8.785ZM116.663 7.75V19H114.578L108.263 8.8H108.233V19H106.958V7.75H109.058L115.358 18.025H115.388V7.75H116.663ZM126.866 17.875V19H118.766V17.095C118.766 14.17 120.011 13.975 122.711 13.69C125.096 13.45 125.621 13.555 125.621 11.215C125.621 8.89 125.111 8.785 122.981 8.785C120.281 8.785 119.996 8.95 120.041 11.02V11.605H118.766V11.02C118.766 8.56 119.081 7.66 122.981 7.66C125.966 7.66 126.896 8.365 126.896 11.215C126.896 14.2 125.846 14.59 123.011 14.815C120.626 15.01 120.041 15.265 120.041 16.915V17.875H126.866ZM133.202 8.785C130.442 8.785 129.707 8.8 129.707 11.725V15.025C129.707 17.95 130.442 17.965 133.202 17.965C135.992 17.965 136.727 17.95 136.727 15.025V11.725C136.727 8.8 135.992 8.785 133.202 8.785ZM133.232 19.09C129.722 19.09 128.507 18.625 128.432 15.025V11.725C128.507 8.125 129.722 7.66 133.202 7.66C136.712 7.66 137.927 8.125 138.002 11.725V15.025C137.927 18.625 136.712 19.09 133.232 19.09ZM143.558 8.785C140.798 8.785 140.063 8.8 140.063 11.725V15.025C140.063 17.95 140.798 17.965 143.558 17.965C146.348 17.965 147.083 17.95 147.083 15.025V11.725C147.083 8.8 146.348 8.785 143.558 8.785ZM143.588 19.09C140.078 19.09 138.863 18.625 138.788 15.025V11.725C138.863 8.125 140.078 7.66 143.558 7.66C147.068 7.66 148.283 8.125 148.358 11.725V15.025C148.283 18.625 147.068 19.09 143.588 19.09ZM155.475 7.75V19H154.2V8.725L151.32 11.89L150.525 11.125L153.63 7.75H155.475Z" fill="white"/>
</g>
<defs>
<clipPath id="clip0_9_50">
<rect width="160" height="28" fill="white"/>
</clipPath>
</defs>
</svg>
